<svg xmlns="http://www.w3.org/2000/svg" fill="currentColor" shape-rendering="geometricPrecision" text-rendering="geometricPrecision" image-rendering="optimizeQuality" fill-rule="evenodd" clip-rule="evenodd" viewBox="0 0 507 511.73"><path d="M224.639 0c59.668 0 116.663 23.625 158.855 65.816 58.277 58.264 79.952 144.187 56.478 223.076-5.44 18.308-13.169 35.634-22.82 51.652l87.013 94.825c4.008 4.376 3.736 11.192-.627 15.2l-63.894 58.345c-4.362 4.008-11.15 3.694-15.145-.668l-83.237-91.553c-35.253 21.471-75.345 32.676-116.623 32.676-59.681 0-116.678-23.624-158.869-65.816a224.953 224.953 0 01-48.762-72.959C-17.808 226.73 1.985 129.628 65.798 65.843 107.907 23.611 165.012 0 224.639 0zM351.39 97.92C186.06-67.451-70.51 183.202 97.833 351.436c51.257 51.134 128.646 66.579 195.362 38.974 67.083-27.864 110.692-93.107 110.692-165.739 0-24.32-4.812-47.508-13.523-68.542A180.032 180.032 0 00351.39 97.92z"/></svg>